<?xml version="1.0" encoding="utf-8"?>
<!-- Generator: Adobe Illustrator 16.0.0, SVG Export Plug-In . SVG Version: 6.00 Build 0)  -->
<!DOCTYPE svg PUBLIC "-//W3C//DTD SVG 1.1//EN" "http://www.w3.org/Graphics/SVG/1.1/DTD/svg11.dtd">
<svg version="1.1" id="Layer_1" xmlns="http://www.w3.org/2000/svg" xmlns:xlink="http://www.w3.org/1999/xlink" x="0px" y="0px"
	 width="12.062px" height="15.125px" viewBox="0 0 12.062 15.125" enable-background="new 0 0 12.062 15.125" xml:space="preserve">
<g>
	<g>
		<g>
			<path fill="#0D5E77" d="M3.987,14.819c-0.555,0-1.102-0.189-1.539-0.533l-1.371-1.077c-0.523-0.411-0.856-1.001-0.936-1.663
				c-0.079-0.662,0.104-1.314,0.515-1.838l2.154-2.741c0.819-1.041,2.457-1.24,3.501-0.419l1.37,1.076
				c1.081,0.851,1.269,2.421,0.421,3.501l-2.155,2.742C5.473,14.472,4.758,14.819,3.987,14.819z M4.772,7.514
				c-0.307,0-0.592,0.138-0.782,0.379l-2.154,2.741c-0.164,0.208-0.236,0.468-0.205,0.732c0.031,0.264,0.164,0.499,0.372,0.663
				l1.371,1.077c0.419,0.329,1.066,0.25,1.394-0.167l2.155-2.742c0.338-0.43,0.262-1.056-0.168-1.395l-1.37-1.076
				C5.208,7.588,4.996,7.514,4.772,7.514z"/>
		</g>
		<g>
			<path fill="#0D5E77" d="M5.987,9.819c-0.555,0-1.102-0.189-1.539-0.533L3.078,8.209C2.554,7.798,2.222,7.208,2.142,6.546
				C2.063,5.884,2.246,5.232,2.657,4.708l2.154-2.741c0.82-1.041,2.457-1.241,3.501-0.419l1.37,1.076
				c1.081,0.851,1.269,2.421,0.421,3.501L7.948,8.866C7.473,9.472,6.758,9.819,5.987,9.819z M6.772,2.514
				c-0.307,0-0.592,0.138-0.782,0.379L3.836,5.635C3.673,5.843,3.6,6.103,3.632,6.367C3.663,6.63,3.795,6.866,4.004,7.029
				l1.371,1.077c0.42,0.33,1.066,0.25,1.394-0.167l2.155-2.742c0.338-0.43,0.262-1.056-0.168-1.395l-1.37-1.076
				C7.208,2.588,6.996,2.514,6.772,2.514z"/>
		</g>
	</g>
	<g>
		<g>
			<path fill="#73B1CD" d="M4.487,14.069c-0.555,0-1.102-0.189-1.539-0.533l-1.371-1.077c-0.523-0.411-0.856-1.001-0.936-1.663
				c-0.079-0.662,0.104-1.314,0.515-1.838l2.154-2.741c0.819-1.041,2.457-1.24,3.501-0.419l1.37,1.076
				c1.081,0.851,1.269,2.421,0.421,3.501l-2.155,2.742C5.973,13.722,5.258,14.069,4.487,14.069z M5.272,6.764
				c-0.307,0-0.592,0.138-0.782,0.379L2.336,9.885c-0.164,0.208-0.236,0.468-0.205,0.732c0.031,0.264,0.164,0.499,0.372,0.663
				l1.371,1.077c0.419,0.329,1.066,0.25,1.394-0.167l2.155-2.742c0.338-0.43,0.262-1.056-0.168-1.395l-1.37-1.076
				C5.708,6.838,5.496,6.764,5.272,6.764z"/>
		</g>
		<g>
			<path fill="#73B1CD" d="M6.487,9.069c-0.555,0-1.102-0.189-1.539-0.533L3.578,7.459C3.054,7.048,2.722,6.458,2.642,5.796
				C2.563,5.134,2.746,4.482,3.157,3.958l2.154-2.741c0.82-1.041,2.457-1.241,3.501-0.419l1.37,1.076
				c1.081,0.851,1.269,2.421,0.421,3.501L8.448,8.116C7.973,8.722,7.258,9.069,6.487,9.069z M7.272,1.764
				c-0.307,0-0.592,0.138-0.782,0.379L4.336,4.885C4.173,5.093,4.1,5.353,4.132,5.617C4.163,5.88,4.295,6.116,4.504,6.279
				l1.371,1.077c0.42,0.33,1.066,0.25,1.394-0.167l2.155-2.742c0.338-0.43,0.262-1.056-0.168-1.395l-1.37-1.076
				C7.708,1.838,7.496,1.764,7.272,1.764z"/>
		</g>
	</g>
	<g>
		<g>
			<path fill="#73B1CD" d="M4.487,14.069c-0.555,0-1.102-0.189-1.539-0.533l-1.371-1.077c-0.523-0.411-0.856-1.001-0.936-1.663
				c-0.079-0.662,0.104-1.314,0.515-1.838l2.154-2.741c0.819-1.041,2.457-1.24,3.501-0.419l1.37,1.076
				c1.081,0.851,1.269,2.421,0.421,3.501l-2.155,2.742C5.973,13.722,5.258,14.069,4.487,14.069z M5.272,6.764
				c-0.307,0-0.592,0.138-0.782,0.379L2.336,9.885c-0.164,0.208-0.236,0.468-0.205,0.732c0.031,0.264,0.164,0.499,0.372,0.663
				l1.371,1.077c0.419,0.329,1.066,0.25,1.394-0.167l2.155-2.742c0.338-0.43,0.262-1.056-0.168-1.395l-1.37-1.076
				C5.708,6.838,5.496,6.764,5.272,6.764z"/>
		</g>
		<g>
			<path fill="#73B1CD" d="M6.487,9.069c-0.555,0-1.102-0.189-1.539-0.533L3.578,7.459C3.054,7.048,2.722,6.458,2.642,5.796
				C2.563,5.134,2.746,4.482,3.157,3.958l2.154-2.741c0.82-1.041,2.457-1.241,3.501-0.419l1.37,1.076
				c1.081,0.851,1.269,2.421,0.421,3.501L8.448,8.116C7.973,8.722,7.258,9.069,6.487,9.069z M7.272,1.764
				c-0.307,0-0.592,0.138-0.782,0.379L4.336,4.885C4.173,5.093,4.1,5.353,4.132,5.617C4.163,5.88,4.295,6.116,4.504,6.279
				l1.371,1.077c0.42,0.33,1.066,0.25,1.394-0.167l2.155-2.742c0.338-0.43,0.262-1.056-0.168-1.395l-1.37-1.076
				C7.708,1.838,7.496,1.764,7.272,1.764z"/>
		</g>
	</g>
</g>
</svg>
