<?xml version="1.0" encoding="utf-8"?>
<!-- Generator: Adobe Illustrator 16.0.0, SVG Export Plug-In . SVG Version: 6.00 Build 0)  -->
<!DOCTYPE svg PUBLIC "-//W3C//DTD SVG 1.1//EN" "http://www.w3.org/Graphics/SVG/1.1/DTD/svg11.dtd">
<svg version="1.1" id="Layer_1" xmlns="http://www.w3.org/2000/svg" xmlns:xlink="http://www.w3.org/1999/xlink" x="0px" y="0px"
	 width="12.062px" height="14.188px" viewBox="0 0 12.062 14.188" enable-background="new 0 0 12.062 14.188" xml:space="preserve">
<g>
	<path fill="#0D5E77" d="M8.689,9c0,1-1.044,2.359-2.471,2.359S3.963,9.948,3.963,8.521C3.963,7.094,4,5.957,7,5.957v1.935
		l3.2-3.501L7,0.892v2.556c-4,0-5.547,2.424-5.547,5.234s1.945,5.188,4.755,5.188S11.198,12,11.198,9H8.689z"/>
	<path fill="#73B1CD" d="M9.189,8c0,2-1.044,2.484-2.471,2.484S4.213,9.136,4.213,7.709C4.213,6.281,5,5.207,7,5.207v1.935
		l3.2-3.501L7,0.142v2.556c-4,0-5.297,2.424-5.297,5.234s2.07,5.062,4.88,5.062S11.698,11,11.698,8H9.189z"/>
</g>
</svg>
