<?xml version="1.0" encoding="utf-8"?>
<!-- Generator: Adobe Illustrator 16.0.0, SVG Export Plug-In . SVG Version: 6.00 Build 0)  -->
<!DOCTYPE svg PUBLIC "-//W3C//DTD SVG 1.1//EN" "http://www.w3.org/Graphics/SVG/1.1/DTD/svg11.dtd">
<svg version="1.1" id="Layer_1" xmlns="http://www.w3.org/2000/svg" xmlns:xlink="http://www.w3.org/1999/xlink" x="0px" y="0px"
	 width="12.062px" height="14.188px" viewBox="0 0 12.062 14.188" enable-background="new 0 0 12.062 14.188" xml:space="preserve">
<g>
	<g>
		<path fill="#0D5E77" d="M8.5,6.75v-4h-6v4h-2v6h10v-6H8.5z M9.062,8.188v0.938h-2V8.188H9.062z M3.5,3.75h4v3h-4V3.75z
			 M2.062,8.188H3v0.938H2.062V8.188z M9.5,11.75h-8v-1h8V11.75z"/>
		<rect x="4.5" y="4.75" fill="#0D5E77" width="2" height="1"/>
	</g>
	<g>
		<path fill="#73B1CD" d="M9,6V2H3v4H1v6h10V6H9z M9.562,7.438v0.938h-2V7.438H9.562z M4,3h4v3H4V3z M2.562,7.438H3.5v0.938H2.562
			V7.438z M10,11H2v-1h8V11z"/>
		<rect x="5" y="4" fill="#73B1CD" width="2" height="1"/>
	</g>
	<g>
		<path fill="#73B1CD" d="M9,6V2H3v4H1v6h10V6H9z M9.562,7.438v0.938h-2V7.438H9.562z M4,3h4v3H4V3z M2.562,7.438H3.5v0.938H2.562
			V7.438z M10,11H2v-1h8V11z"/>
		<rect x="5" y="4" fill="#73B1CD" width="2" height="1"/>
	</g>
</g>
</svg>
